<svg width="64" height="64" viewBox="0 0 64 64" fill="none" xmlns="http://www.w3.org/2000/svg">
<path d="M0 0V48H16V64H64V16H48V0H0ZM5.33333 5.33333H42.6667V17.5013L17.4987 42.6667H5.33333V5.33333ZM18.6667 10.6667V13.3333H10.6667V18.6667H23.8347C23.488 21.7333 22.5493 24.144 21 25.8347C20.1579 25.5611 19.3478 25.1972 18.584 24.7493C16.7067 23.6347 15.9973 22.456 15.9973 21.336H10.6667C10.6667 24.5147 12.624 27.1547 15.2533 28.92C13.7424 29.2131 12.2056 29.3516 10.6667 29.3333V34.6667C15.392 34.6667 19.328 33.5867 22.3333 31.584C23.7307 31.824 25.1413 32 26.6667 32V27C28.1147 24.5733 28.888 21.7387 29.168 18.6667H32V13.3333H24V10.6667H18.6667ZM46.5013 21.3333H58.6667V58.6667H21.3333V46.4987L46.5013 21.3333ZM42.6667 26.2507L40.1653 33.8347L34.832 49.8347L34.6667 50.2507V53.3333H40V51L40.08 50.6667H45.2533L45.3333 51V53.3333H50.6667V50.2507L50.4987 49.832L45.1653 33.832L42.6667 26.2533V26.2507ZM42.6667 42.9973L43.4133 45.3333H41.92L42.6667 42.9973Z" fill="white"/>
</svg>
