<svg width="64" height="62" viewBox="0 0 64 62" fill="none" xmlns="http://www.w3.org/2000/svg">
<path d="M46.1942 53.8565H42.062C43.8961 55.4125 46.2629 56.2705 48.7139 56.2679C50.9468 56.266 53.1157 55.5545 54.8803 54.2451C56.6449 52.9357 57.9052 51.1026 58.4634 49.0335H63.617C63.165 51.5834 62.0072 53.9707 60.2639 55.947C58.5207 57.9233 56.2558 59.4162 53.7051 60.2704C51.1544 61.1246 48.411 61.3089 45.7607 60.804C43.1103 60.2992 40.6497 59.1236 38.6352 57.3997V61.0909H33.5958V49.0335H46.1942V53.8565ZM40.315 22.5072H33.5958V6.43062H6.71916V51.445H30.2362V57.8756H0V0H40.315V22.5072ZM35.7963 29.7384L20.2583 48.3261L10.0787 40.3875L14.2749 35.3684L19.2067 39.2911L30.5487 25.7225L35.7963 29.7384ZM64 44.2105H51.4016V39.3876H55.3659C53.5317 37.8315 51.1649 36.9735 48.7139 36.9761C46.4811 36.978 44.3121 37.6895 42.5475 38.9989C40.7829 40.3083 39.5226 42.1414 38.9644 44.2105H33.8075C34.2611 41.6412 35.4313 39.2368 37.1945 37.2513C38.9577 35.2658 41.2484 33.7728 43.8247 32.9301C46.401 32.0873 49.1673 31.9261 51.8315 32.4633C54.4956 33.0006 56.9587 34.2165 58.9606 35.9825V32.1531H64V44.2105ZM26.8766 16.0766H13.4383V12.8612H26.8766V16.0766Z" fill="white"/>
</svg>
