<svg width="72" height="61" viewBox="0 0 72 61" fill="none" xmlns="http://www.w3.org/2000/svg">
<path d="M36 0C40.4125 0 44 3.41934 44 7.625C44 11.8307 40.4125 15.25 36 15.25C31.5875 15.25 28 11.8307 28 7.625C28 3.41934 31.5875 0 36 0ZM48 37.1719C48 40.1504 46.4125 42.7715 44 44.3084V49.5625H28V44.3084C25.5875 42.7715 24 40.1504 24 37.1719V32.4062C24 26.0918 29.375 20.9688 36 20.9688C42.625 20.9688 48 26.0918 48 32.4062V37.1719ZM50 49.5625V46.31C52.4875 43.6293 54 40.0908 54 36.2188V32.4062C54 29.2252 53.0875 26.2586 51.5125 23.6971C52.9 23.1609 54.4125 22.875 56 22.875C62.625 22.875 68 27.998 68 34.3125V38.125C68 40.9486 66.3875 43.4148 64 44.7254V49.5625H50ZM8 44.7254C5.6125 43.4148 4 40.9486 4 38.125V34.3125C4 27.998 9.375 22.875 16 22.875C17.5875 22.875 19.1 23.1729 20.4875 23.6971C18.9125 26.2467 18 29.2252 18 32.4062V36.2188C18 40.0908 19.5125 43.6174 22 46.31V49.5625H8V44.7254ZM16 3.8125C19.8625 3.8125 23 6.80293 23 10.4844C23 14.1658 19.8625 17.1562 16 17.1562C12.1375 17.1562 9 14.1658 9 10.4844C9 6.80293 12.1375 3.8125 16 3.8125ZM56 3.8125C59.8625 3.8125 63 6.80293 63 10.4844C63 14.1658 59.8625 17.1562 56 17.1562C52.1375 17.1562 49 14.1658 49 10.4844C49 6.80293 52.1375 3.8125 56 3.8125ZM3 55.2812H69C70.6625 55.2812 72 56.5561 72 58.1406C72 59.7252 70.6625 61 69 61H3C1.3375 61 0 59.7252 0 58.1406C0 56.5561 1.3375 55.2812 3 55.2812Z" fill="white"/>
</svg>
