<svg width="64" height="64" viewBox="0 0 64 64" fill="none" xmlns="http://www.w3.org/2000/svg">
<path fill-rule="evenodd" clip-rule="evenodd" d="M51.0848 2.97091C50.1932 -1.00626 44.5553 -0.983407 43.7002 2.99834L43.6042 3.44177L45.8401 3.92178L43.5996 3.44177C43.1092 5.80001 41.9267 7.95855 40.2033 9.64166C38.4799 11.3248 36.2937 12.4561 33.9241 12.891C29.8271 13.6179 29.8271 19.5333 33.9241 20.2602C36.2933 20.6937 38.4796 21.8232 40.2038 23.5047C41.928 25.1861 43.1118 27.3431 43.6042 29.7003L43.6956 30.1437C44.5553 34.1209 50.1886 34.1529 51.0848 30.1757L51.1992 29.6591C51.7129 27.3091 52.9096 25.1633 54.6392 23.4911C56.3687 21.8189 58.554 20.6948 60.9204 20.2602C65.0265 19.5333 65.0265 13.6087 60.9204 12.8819C58.5531 12.448 56.3669 11.3244 54.6365 9.65211C52.9061 7.97984 51.7086 5.83354 51.1946 3.48292L51.0848 2.97091ZM33.1239 2.38576C27.8139 -0.242002 21.693 -0.714354 16.0426 1.06759C10.3922 2.84953 5.65022 6.74761 2.80943 11.9458C-0.0313538 17.1441 -0.750744 23.2394 0.801858 28.9559C2.35446 34.6724 6.05868 39.5668 11.1391 42.6147V47.6159C11.1391 48.9653 11.6753 50.2595 12.6297 51.2137C13.5841 52.1678 14.8786 52.7039 16.2283 52.7039H29.6213C30.2897 52.7039 30.9514 52.5723 31.5689 52.3166C32.1863 52.0609 32.7474 51.6861 33.22 51.2137C33.6925 50.7412 34.0674 50.1803 34.3232 49.563C34.5789 48.9457 34.7106 48.284 34.7106 47.6159V42.6238C36.7042 41.4352 38.5012 39.9541 40.0422 38.2352C40.5382 37.6694 40.791 36.9308 40.7456 36.1797C40.7003 35.4287 40.3604 34.7258 39.7999 34.2238C39.2393 33.7218 38.5033 33.4611 37.7516 33.4983C37 33.5355 36.2933 33.8676 35.7851 34.4226C34.3179 36.0521 32.5554 37.3892 30.5907 38.3632C30.1131 38.6001 29.7107 38.9648 29.4281 39.4168C29.1456 39.8688 28.994 40.3903 28.9903 40.9232V46.9941H16.8548V40.9278C16.8524 40.3963 16.7029 39.8758 16.4228 39.4239C16.1428 38.9721 15.7431 38.6066 15.2681 38.3678C11.2246 36.3081 8.15712 32.7367 6.73195 28.4293C5.30678 24.1218 5.63898 19.4261 7.65642 15.3621C9.67386 11.298 13.2136 8.19387 17.5069 6.72376C21.8001 5.25365 26.5001 5.53632 30.5861 7.51038C31.2645 7.84062 32.046 7.88926 32.7601 7.64569C33.4742 7.40211 34.0629 6.88608 34.398 6.21018C34.733 5.53428 34.787 4.75335 34.5484 4.03774C34.3097 3.32214 33.7976 2.72537 33.1239 2.38576ZM14.2713 58.2857C13.5133 58.2857 12.7864 58.5867 12.2505 59.1225C11.7145 59.6583 11.4135 60.3851 11.4135 61.1428C11.4135 61.9006 11.7145 62.6273 12.2505 63.1632C12.7864 63.699 13.5133 64 14.2713 64H31.4183C32.1763 64 32.9032 63.699 33.4391 63.1632C33.9751 62.6273 34.2762 61.9006 34.2762 61.1428C34.2762 60.3851 33.9751 59.6583 33.4391 59.1225C32.9032 58.5867 32.1763 58.2857 31.4183 58.2857H14.2713Z" fill="white"/>
</svg>
