<?xml version="1.0" encoding="utf-8"?>
<!-- Generator: Adobe Illustrator 24.0.0, SVG Export Plug-In . SVG Version: 6.00 Build 0)  -->
<svg version="1.1" id="Ebene_1" xmlns="http://www.w3.org/2000/svg" xmlns:xlink="http://www.w3.org/1999/xlink" x="0px" y="0px"
	 viewBox="0 0 4438.66 1351.87" style="enable-background:new 0 0 4438.66 1351.87;" xml:space="preserve">
<style type="text/css">
	.st0{fill:#4F3581;}
</style>
<g>
	<path class="st0" d="M330.92,1277.83c0,0-45.5,7.8-63.65-2.32c0,0-9.92-1.9-9.92-30.17c0,0,3.8-73,4.64-72.79
		c0.84,0.21,2.11-38.61-1.9-74.06c-4.01-35.45-9.07-89.25-9.07-89.25s-23.21-212.04-31.65-266.05l-7.74-47.96
		c0,0-11.25-37.7,13.5-75.96l31.79-46.7c0,0,4.36-5.21,2.25-12.1c0,0-9.85-69.48-11.39-107.32c-1.55-37.84-2.39-88.33-2.39-88.33
		s0.98-68.5,3.52-92.13c0,0,0.28-2.95,1.69-3.66c1.41-0.7,28.91-16.81,91.99-24.83s125.33-5.91,125.33-5.91s-1.9,64.14-24.69,160.77
		c0,0-22.15,93.68-36.5,135.24c0,0-13.93,34.6-4.22,56.97c9.71,22.36,25.11,50,17.93,93.26c-7.17,43.25-11.39,100.22-11.39,100.22
		s-11.82,134.19-11.18,200.02c0,0-2.74,65.2-0.63,140.52c0,0,2.11,66.67,4.43,108.45c0,0,0.56,12.59-7.6,18.78
		C383.28,1260.69,361.86,1272.56,330.92,1277.83z"/>
	<path class="st0" d="M287.31,88.14c0,0,14.77-12.73,55.91-29.19c0,0,36.5-14.85,59.5-19.03c0,0,2.95-1.23,3.59,4.26
		c0.63,5.49,11.39,58.23,11.39,58.23s6.33,26.58,11.39,38.82c0,0,1.69,5.56-1.41,12.45c-3.09,6.89-13.52,41.22-89.19,56.69
		c0,0-30.23,9.56-39.38-27.99c0,0-5.2-24.48-6.47-49.65c0,0-1.13-24.05-6.61-37.56C286.05,95.17,283.19,91.21,287.31,88.14z"/>
	<path class="st0" d="M521.93,617.44c0,0,23.84-27.64,47.05-41.56c0,0,49.44-29.75,55.91-29.05c0,0,8.72-1.83,16.03,14.35
		c0,0,3.52,5.34,0,30.94c-3.52,25.6-12.45,78.07-24.05,121.95l-10.34,39.67c0,0-7.6,25.74-19.41,49.79
		c-11.82,24.05-32.91,70.89-36.29,88.83s-8.44,35.45,9.07,56.76c0,0,8.65,15.19,37.77,13.5c0,0,14.98-1.48,28.69-4.85
		c0,0-0.84-36.5,1.9-48.95c2.74-12.45,12.24-55.91,12.24-55.91l8.65-37.34c0,0,43.25-24.05,91.78-25.95c0,0-9.49,74.27-10.13,85.45
		c-0.63,11.18-2.53,43.89,2.74,68.36c0,0,0.21,8.44,15.4,4.22c0,0,13.93-7.38,21.31-2.32c0,0,7.25,3.1-1.27,21.52
		c-8.99,19.45-12.16,24.34-35.51,50.5c0,0-4.58,45.29-5.63,81.79c0,0-1.27,65.62-1.69,74.48c-0.42,8.86-2.53,41.78-2.53,41.78
		s0,12.03-9.92,18.57c-9.92,6.54-32.28,17.51-92.83,14.98c0,0-19.62-1.27-19.83-12.66c-0.21-11.39-0.21-35.45,4.43-67.09
		c0,0,7.81-53.38,9.92-76.17c2.11-22.79,3.38-37.34,3.16-46.84c0,0-29.4,7.74-63.09,12.45c0,0-44.52,5.42-73.37-14.56
		c-23.28-16.12-31.07-27.85-33.82-58.02c0,0-1.9-25.95,10.13-58.87c12.03-32.91,16.25-37.98,22.15-55.7
		c5.91-17.72,19.83-51.9,31.65-135.66C524.04,652.04,521.93,617.44,521.93,617.44z"/>
</g>
<g>
	<path d="M975.67,646.41L873.26,428.07h82.14l30.14,77.98c9.37,25.47,18.19,48.86,27.56,74.85h2.08
		c9.88-25.99,19.24-49.39,28.59-74.85l30.67-77.98h80.06l-102.41,218.34v120.6h-76.42V646.41z"/>
	<path d="M1192.42,428.07h212.09v64.47h-135.67v68.1h115.4v63.94h-115.4v77.98h140.87v64.46h-217.29V428.07z"/>
	<path d="M1479.35,428.07h78.49l88.37,168.43l33.27,74.85h2.08c-3.11-35.87-9.35-83.69-9.35-123.72V428.07h72.78v338.94h-78.49
		l-88.38-168.95l-33.27-73.82h-2.08c3.13,37.43,9.35,82.66,9.35,122.68v120.08h-72.77V428.07z"/>
	<path d="M1889.96,428.07h92.02l106.05,338.94h-81.09l-20.81-80.57h-103.45l-20.79,80.57h-77.97L1889.96,428.07z M1898.29,626.66
		h72.25l-7.8-31.19c-9.35-33.79-18.7-73.82-27.54-109.16h-2.09c-8.31,35.86-17.15,75.37-26.51,109.16L1898.29,626.66z"/>
	<path d="M994.91,909.37H891.98v-36.38h249.53v36.38h-102.94V1214h-43.66V909.37z"/>
	<path d="M1204.89,872.98h106.57c69.65,0,119.57,24.95,119.57,95.65c0,53.02-30.16,85.26-76.94,96.69L1440.9,1214h-48.87l-82.13-144
		h-61.86v144h-43.15V872.98z M1305.22,1034.65c53.02,0,82.66-21.83,82.66-66.02c0-44.7-29.63-60.82-82.66-60.82h-57.19v126.84
		H1305.22z"/>
	<path d="M1570.83,872.98h48.86L1735.11,1214h-46.27l-32.23-103.97h-124.24L1499.61,1214h-44.19L1570.83,872.98z M1543.27,1075.2
		h102.41l-16.12-51.98c-12.46-37.95-23.39-75.38-34.31-114.89h-2.08c-10.4,39.51-21.32,76.94-33.8,114.89L1543.27,1075.2z"/>
	<path d="M1785.49,872.98h44.71l123.2,214.17l36.91,70.7h2.08c-2.08-34.31-5.2-72.78-5.2-108.65V872.98h41.07V1214h-44.71
		l-123.72-214.7l-36.91-70.18h-2.09c2.6,34.31,5.73,70.7,5.73,106.57V1214h-41.07V872.98z"/>
	<path d="M2098.91,1169.81l25.99-30.15c24.43,25.47,58.75,42.62,94.1,42.62c44.71,0,71.22-22.35,71.22-55.62
		c0-34.83-24.43-45.75-56.66-60.3l-48.86-21.32c-32.23-13.52-69.14-37.95-69.14-87.85c0-51.99,45.22-90.45,107.09-90.45
		c40.55,0,76.42,17.15,100.85,42.1l-23.39,28.08c-20.79-19.75-45.75-32.23-77.46-32.23c-37.95,0-63.43,19.24-63.43,49.91
		c0,32.75,29.63,45.23,56.66,56.66l48.35,20.79c39.51,17.15,70.18,40.55,70.18,90.98c0,54.06-44.19,97.21-115.93,97.21
		C2170.65,1220.24,2128.54,1200.48,2098.91,1169.81z"/>
	<path d="M2403.52,872.98h43.15v304.11h149.2V1214h-192.34V872.98z"/>
	<path d="M2754.38,872.98h48.86L2918.66,1214h-46.27l-32.23-103.97h-124.24L2683.17,1214h-44.19L2754.38,872.98z M2726.83,1075.2
		h102.41l-16.12-51.98c-12.46-37.95-23.39-75.38-34.31-114.89h-2.08c-10.4,39.51-21.32,76.94-33.8,114.89L2726.83,1075.2z"/>
	<path d="M3011.17,909.37h-102.94v-36.38h249.53v36.38h-102.94V1214h-43.66V909.37z"/>
	<path d="M3221.14,872.98h43.15V1214h-43.15V872.98z"/>
	<path d="M3340.15,1041.93c0-109.17,59.79-175.18,145.56-175.18s146.07,66.54,146.07,175.18c0,109.69-60.3,178.31-146.07,178.31
		S3340.15,1151.62,3340.15,1041.93z M3586.56,1041.93c0-84.73-40.02-137.24-100.85-137.24s-100.85,52.51-100.85,137.24
		c0,85.26,40.02,140.36,100.85,140.36S3586.56,1127.19,3586.56,1041.93z"/>
	<path d="M3707.13,872.98h44.71l123.2,214.17l36.91,70.7h2.08c-2.08-34.31-5.2-72.78-5.2-108.65V872.98h41.07V1214h-44.71
		l-123.72-214.7l-36.91-70.18h-2.09c2.6,34.31,5.73,70.7,5.73,106.57V1214h-41.07V872.98z"/>
	<path d="M4020.55,1169.81l25.99-30.15c24.43,25.47,58.75,42.62,94.1,42.62c44.71,0,71.22-22.35,71.22-55.62
		c0-34.83-24.43-45.75-56.66-60.3l-48.86-21.32c-32.23-13.52-69.14-37.95-69.14-87.85c0-51.99,45.22-90.45,107.09-90.45
		c40.55,0,76.42,17.15,100.85,42.1l-23.39,28.08c-20.79-19.75-45.75-32.23-77.46-32.23c-37.95,0-63.43,19.24-63.43,49.91
		c0,32.75,29.63,45.23,56.66,56.66l48.35,20.79c39.51,17.15,70.18,40.55,70.18,90.98c0,54.06-44.19,97.21-115.93,97.21
		C4092.3,1220.24,4050.19,1200.48,4020.55,1169.81z"/>
</g>
</svg>
