<?xml version="1.0" encoding="utf-8"?>
<!-- Generator: Adobe Illustrator 24.0.0, SVG Export Plug-In . SVG Version: 6.00 Build 0)  -->
<svg version="1.1" id="Ebene_1" xmlns="http://www.w3.org/2000/svg" xmlns:xlink="http://www.w3.org/1999/xlink" x="0px" y="0px"
	 viewBox="0 0 4438.66 1351.87" style="enable-background:new 0 0 4438.66 1351.87;" xml:space="preserve">
<style type="text/css">
	.st0{fill:#76691C;}
</style>
<g>
	<path class="st0" d="M334.67,1278.57c0,0-45.62,7.82-63.82-2.33c0,0-9.94-1.9-9.94-30.25c0,0,3.81-73.19,4.65-72.98
		c0.85,0.21,2.12-38.71-1.9-74.25c-4.02-35.54-9.1-89.48-9.1-89.48s-23.27-212.6-31.73-266.76l-7.76-48.09
		c0,0-11.28-37.8,13.54-76.16l31.87-46.82c0,0,4.37-5.22,2.26-12.13c0,0-9.87-69.67-11.42-107.61c-1.55-37.94-2.4-88.57-2.4-88.57
		s0.99-68.68,3.53-92.37c0,0,0.28-2.96,1.69-3.67c1.41-0.71,28.98-16.85,92.23-24.89s125.66-5.92,125.66-5.92
		s-1.9,64.31-24.75,161.2c0,0-22.21,93.93-36.6,135.6c0,0-13.96,34.69-4.23,57.12c9.73,22.42,25.17,50.14,17.98,93.5
		c-7.19,43.37-11.42,100.48-11.42,100.48s-11.85,134.54-11.21,200.54c0,0-2.75,65.37-0.63,140.89c0,0,2.12,66.85,4.44,108.73
		c0,0,0.56,12.62-7.62,18.83C387.17,1261.39,365.7,1273.29,334.67,1278.57z"/>
	<path class="st0" d="M290.95,85.74c0,0,14.81-12.76,56.06-29.26c0,0,36.6-14.89,59.66-19.08c0,0,2.96-1.23,3.6,4.27
		c0.63,5.5,11.42,58.39,11.42,58.39s6.35,26.65,11.42,38.92c0,0,1.69,5.57-1.41,12.48c-3.1,6.91-13.56,41.32-89.42,56.84
		c0,0-30.31,9.59-39.48-28.07c0,0-5.22-24.54-6.49-49.78c0,0-1.13-24.12-6.63-37.66C289.69,92.79,286.82,88.82,290.95,85.74z"/>
	<path class="st0" d="M526.19,616.43c0,0,23.9-27.71,47.17-41.67c0,0,49.57-29.83,56.06-29.12c0,0,8.75-1.83,16.08,14.39
		c0,0,3.53,5.36,0,31.03c-3.53,25.67-12.48,78.27-24.12,122.27l-10.37,39.77c0,0-7.62,25.81-19.46,49.92
		c-11.85,24.12-33,71.08-36.39,89.06c-3.38,17.98-8.46,35.54,9.1,56.91c0,0,8.67,15.23,37.87,13.54c0,0,15.02-1.48,28.77-4.87
		c0,0-0.85-36.6,1.9-49.08c2.75-12.48,12.27-56.06,12.27-56.06l8.67-37.44c0,0,43.37-24.12,92.02-26.02c0,0-9.52,74.46-10.15,85.68
		c-0.63,11.21-2.54,44,2.75,68.54c0,0,0.21,8.46,15.44,4.23c0,0,13.96-7.4,21.37-2.33c0,0,7.27,3.1-1.27,21.58
		c-9.01,19.5-12.19,24.4-35.61,50.63c0,0-4.59,45.41-5.65,82.01c0,0-1.27,65.79-1.69,74.68c-0.42,8.88-2.54,41.89-2.54,41.89
		s0,12.06-9.94,18.62c-9.94,6.56-32.37,17.56-93.08,15.02c0,0-19.67-1.27-19.89-12.69s-0.21-35.54,4.44-67.27
		c0,0,7.83-53.52,9.94-76.37c2.12-22.85,3.38-37.44,3.17-46.96c0,0-29.47,7.76-63.25,12.48c0,0-44.64,5.43-73.56-14.6
		c-23.34-16.16-31.15-27.92-33.91-58.17c0,0-1.9-26.02,10.15-59.02c12.06-33,16.29-38.08,22.21-55.85
		c5.92-17.77,19.89-52.04,31.73-136.02C528.31,651.12,526.19,616.43,526.19,616.43z"/>
</g>
<g>
	<path d="M981.13,645.48L878.45,426.57h82.36l30.22,78.19c9.39,25.54,18.24,48.99,27.63,75.05h2.08
		c9.9-26.06,19.29-49.52,28.67-75.05l30.75-78.19h80.27l-102.68,218.92V766.4h-76.62V645.48z"/>
	<path d="M1198.46,426.57h212.65v64.64h-136.03v68.28h115.71v64.11h-115.71v78.19h141.24v64.63h-217.86V426.57z"/>
	<path d="M1486.14,426.57h78.7l88.6,168.88l33.36,75.05h2.08c-3.12-35.97-9.38-83.92-9.38-124.05V426.57h72.97V766.4h-78.7
		l-88.62-169.4l-33.36-74.01h-2.08c3.13,37.53,9.38,82.88,9.38,123.01v120.4h-72.96V426.57z"/>
	<path d="M1897.84,426.57h92.27l106.33,339.84h-81.31l-20.86-80.79h-103.72l-20.85,80.79h-78.17L1897.84,426.57z M1906.19,625.68
		h72.44l-7.82-31.28c-9.38-33.88-18.75-74.01-27.62-109.45h-2.09c-8.34,35.96-17.2,75.57-26.58,109.45L1906.19,625.68z"/>
	<path d="M1000.43,909.13H897.22v-36.48h250.19v36.48H1044.2v305.44h-43.78V909.13z"/>
	<path d="M1210.95,872.66h106.86c69.84,0,119.88,25.02,119.88,95.9c0,53.16-30.24,85.48-77.15,96.95l87.05,149.07h-49l-82.35-144.38
		h-62.03v144.38h-43.26V872.66z M1311.56,1034.75c53.16,0,82.88-21.89,82.88-66.2c0-44.82-29.71-60.98-82.88-60.98h-57.34v127.18
		H1311.56z"/>
	<path d="M1577.87,872.66h48.99l115.72,341.92h-46.4l-32.32-104.24h-124.57l-32.83,104.24h-44.3L1577.87,872.66z M1550.24,1075.41
		h102.68l-16.16-52.12c-12.5-38.05-23.45-75.58-34.4-115.19h-2.08c-10.43,39.61-21.37,77.14-33.88,115.19L1550.24,1075.41z"/>
	<path d="M1793.1,872.66h44.83l123.53,214.74l37.01,70.88h2.08c-2.08-34.4-5.22-72.97-5.22-108.94V872.66h41.18v341.92h-44.83
		l-124.04-215.27l-37.01-70.36h-2.09c2.61,34.41,5.74,70.89,5.74,106.85v178.78h-41.18V872.66z"/>
	<path d="M2107.34,1170.27l26.06-30.23c24.5,25.54,58.91,42.73,94.35,42.73c44.83,0,71.4-22.41,71.4-55.77
		c0-34.93-24.5-45.87-56.81-60.46l-48.99-21.37c-32.32-13.55-69.32-38.05-69.32-88.08c0-52.12,45.34-90.69,107.37-90.69
		c40.65,0,76.62,17.2,101.11,42.21l-23.45,28.15c-20.85-19.81-45.87-32.32-77.66-32.32c-38.05,0-63.6,19.29-63.6,50.04
		c0,32.84,29.71,45.35,56.81,56.81l48.48,20.85c39.61,17.2,70.36,40.66,70.36,91.22c0,54.21-44.3,97.47-116.23,97.47
		C2179.28,1220.83,2137.05,1201.02,2107.34,1170.27z"/>
	<path d="M2412.76,872.66h43.26v304.91h149.59v37.01h-192.85V872.66z"/>
	<path d="M2764.55,872.66h48.99l115.72,341.92h-46.4l-32.32-104.24h-124.57l-32.83,104.24h-44.3L2764.55,872.66z M2736.92,1075.41
		h102.68l-16.16-52.12c-12.5-38.05-23.45-75.58-34.4-115.19h-2.08c-10.43,39.61-21.37,77.14-33.88,115.19L2736.92,1075.41z"/>
	<path d="M3022.01,909.13H2918.8v-36.48H3169v36.48h-103.21v305.44h-43.78V909.13z"/>
	<path d="M3232.54,872.66h43.26v341.92h-43.26V872.66z"/>
	<path d="M3351.87,1042.05c0-109.46,59.95-175.65,145.94-175.65s146.46,66.72,146.46,175.65c0,109.98-60.46,178.78-146.46,178.78
		S3351.87,1152.02,3351.87,1042.05z M3598.93,1042.05c0-84.96-40.13-137.6-101.11-137.6c-60.99,0-101.11,52.64-101.11,137.6
		c0,85.48,40.13,140.73,101.11,140.73C3558.8,1182.78,3598.93,1127.53,3598.93,1042.05z"/>
	<path d="M3719.82,872.66h44.83l123.53,214.74l37.01,70.88h2.08c-2.08-34.4-5.22-72.97-5.22-108.94V872.66h41.18v341.92h-44.83
		l-124.04-215.27l-37.01-70.36h-2.09c2.61,34.41,5.74,70.89,5.74,106.85v178.78h-41.18V872.66z"/>
	<path d="M4034.07,1170.27l26.06-30.23c24.5,25.54,58.91,42.73,94.35,42.73c44.83,0,71.4-22.41,71.4-55.77
		c0-34.93-24.5-45.87-56.81-60.46l-48.99-21.37c-32.32-13.55-69.32-38.05-69.32-88.08c0-52.12,45.34-90.69,107.37-90.69
		c40.65,0,76.62,17.2,101.11,42.21l-23.45,28.15c-20.85-19.81-45.87-32.32-77.66-32.32c-38.05,0-63.6,19.29-63.6,50.04
		c0,32.84,29.71,45.35,56.81,56.81l48.48,20.85c39.61,17.2,70.36,40.66,70.36,91.22c0,54.21-44.3,97.47-116.23,97.47
		C4106,1220.83,4063.78,1201.02,4034.07,1170.27z"/>
</g>
</svg>
