<svg width="92" height="92" viewBox="0 0 92 92" fill="none" xmlns="http://www.w3.org/2000/svg">
<path d="M88.7471 31.5145C94.25 26.0118 91.7407 19.5847 88.7471 16.4592L75.5399 3.25276C69.993 -2.24992 63.6095 0.259302 60.4838 3.25276L52.9998 10.7804H41.5976C33.2331 10.7804 28.3905 15.1826 25.9252 20.245L6.37862 39.7906V57.3991L3.25293 60.4806C-2.25004 66.0273 0.259316 72.4105 3.25293 75.536L16.4601 88.7424C18.8373 91.1196 21.3907 92 23.812 92C26.9377 92 29.7993 90.4592 31.5162 88.7424L43.4026 76.8126H59.2071C66.6912 76.8126 70.4772 72.1463 71.8419 67.5681C76.8166 66.2475 79.5461 62.4616 80.6467 58.7638C87.4704 57.0029 90.0238 50.5318 90.0238 45.9976V32.7911H87.4264L88.7471 31.5145ZM81.219 45.9976C81.219 47.9785 80.3826 50.3997 76.8166 50.3997H72.4143V54.8019C72.4143 56.7828 71.5778 59.204 68.0119 59.204H63.6095V63.6062C63.6095 65.5871 62.7731 68.0083 59.2071 68.0083H39.7927L25.3529 82.4473C23.9881 83.724 23.1957 82.9756 22.7114 82.4914L9.54833 69.373C8.27164 68.0083 9.02004 67.2159 9.5043 66.7317L15.1834 61.0089V43.4003L23.9881 34.596V41.5954C23.9881 46.922 27.51 54.8019 37.1953 54.8019C46.8805 54.8019 50.4024 46.922 50.4024 41.5954H81.219V45.9976ZM82.4957 25.2635L75.0117 32.7911H41.5976V41.5954C41.5976 43.5764 40.7612 45.9976 37.1953 45.9976C33.6293 45.9976 32.7929 43.5764 32.7929 41.5954V28.389C32.7929 26.364 33.5413 19.5847 41.5976 19.5847H56.6097L66.6471 9.54783C68.0119 8.2712 68.8043 9.01957 69.2886 9.50381L82.4517 22.6222C83.7284 23.9869 82.98 24.7792 82.4957 25.2635Z" fill="white"/>
</svg>
