<svg width="129" height="129" viewBox="0 0 129 129" fill="none" xmlns="http://www.w3.org/2000/svg">
<path d="M1.86908 117.464L63.2132 56.1199L54.2672 47.0461L49.6664 51.583C49.0752 52.1754 48.373 52.6454 47.6 52.966C46.827 53.2867 45.9983 53.4518 45.1614 53.4518C44.3245 53.4518 43.4959 53.2867 42.7228 52.966C41.9498 52.6454 41.2476 52.1754 40.6565 51.583L36.1196 47.0461C35.5272 46.455 35.0572 45.7528 34.7365 44.9798C34.4159 44.2067 34.2508 43.3781 34.2508 42.5412C34.2508 41.7043 34.4159 40.8756 34.7365 40.1026C35.0572 39.3296 35.5272 38.6274 36.1196 38.0362L72.287 1.86872C72.8782 1.27635 73.5804 0.806375 74.3534 0.485715C75.1264 0.165055 75.9551 0 76.792 0C77.6289 0 78.4576 0.165055 79.2306 0.485715C80.0036 0.806375 80.7058 1.27635 81.297 1.86872L85.8339 6.40563C88.326 8.89774 88.326 12.9234 85.8339 15.4156L81.297 19.8247L90.3708 28.9624C90.9619 28.37 91.6641 27.9 92.4371 27.5794C93.2102 27.2587 94.0388 27.0937 94.8757 27.0937C95.7126 27.0937 96.5413 27.2587 97.3143 27.5794C98.0873 27.9 98.7895 28.37 99.3807 28.9624C101.873 31.4545 101.873 35.5441 99.3807 38.0362L108.391 47.0461L112.928 42.5092C115.42 40.0171 119.509 40.0171 122.001 42.5092L126.474 47.0461C128.966 49.5382 128.966 53.6278 126.474 56.1199L90.3708 92.2235C87.8787 94.7156 83.7891 94.7156 81.297 92.2235L76.8239 87.7505C76.2172 87.1609 75.7349 86.4556 75.4055 85.6763C75.0762 84.8971 74.9065 84.0596 74.9065 83.2136C74.9065 82.3676 75.0762 81.5302 75.4055 80.7509C75.7349 79.9716 76.2172 79.2663 76.8239 78.6767L81.297 74.1398L72.287 65.1299L10.879 126.538C10.2878 127.13 9.58565 127.6 8.81262 127.921C8.0396 128.242 7.21093 128.407 6.37404 128.407C5.53715 128.407 4.70848 128.242 3.93545 127.921C3.16243 127.6 2.46024 127.13 1.86908 126.538C-0.623026 124.046 -0.623026 119.956 1.86908 117.464ZM114.972 109.285C118.362 109.285 121.612 110.631 124.009 113.028C126.406 115.425 127.752 118.675 127.752 122.065V128.455H63.8522V122.065C63.8522 118.675 65.1987 115.425 67.5954 113.028C69.9921 110.631 73.2428 109.285 76.6322 109.285H114.972Z" fill="#676767"/>
</svg>
