<svg width="93" height="93" viewBox="0 0 93 93" fill="none" xmlns="http://www.w3.org/2000/svg">
<path d="M1.35437 85.0428L45.8055 40.6302L39.323 34.0609L35.9892 37.3456C35.5608 37.7744 35.052 38.1147 34.4918 38.3469C33.9317 38.579 33.3312 38.6985 32.7248 38.6985C32.1184 38.6985 31.5179 38.579 30.9578 38.3469C30.3976 38.1147 29.8888 37.7744 29.4604 37.3456L26.1729 34.0609C25.7436 33.6329 25.4031 33.1245 25.1707 32.5649C24.9384 32.0052 24.8188 31.4053 24.8188 30.7994C24.8188 30.1935 24.9384 29.5935 25.1707 29.0338C25.4031 28.4742 25.7436 27.9658 26.1729 27.5378L52.3805 1.35294C52.8089 0.92406 53.3177 0.583807 53.8778 0.351652C54.438 0.119498 55.0385 0 55.6449 0C56.2513 0 56.8518 0.119498 57.4119 0.351652C57.9721 0.583807 58.4809 0.92406 58.9093 1.35294L62.1968 4.63761C64.0026 6.44187 64.0026 9.35644 62.1968 11.1607L58.9093 14.3528L65.4843 20.9685C65.9127 20.5396 66.4215 20.1993 66.9817 19.9672C67.5418 19.735 68.1423 19.6155 68.7487 19.6155C69.3551 19.6155 69.9556 19.735 70.5157 19.9672C71.0759 20.1993 71.5847 20.5396 72.0131 20.9685C73.8189 22.7727 73.8189 25.7336 72.0131 27.5378L78.5418 34.0609L81.8294 30.7762C83.6352 28.972 86.5986 28.972 88.4044 30.7762L91.6456 34.0609C93.4515 35.8652 93.4515 38.826 91.6456 40.6302L65.4843 66.7689C63.6785 68.5731 60.7151 68.5731 58.9093 66.7689L55.668 63.5304C55.2284 63.1036 54.8789 62.593 54.6402 62.0288C54.4016 61.4646 54.2786 60.8583 54.2786 60.2458C54.2786 59.6333 54.4016 59.027 54.6402 58.4628C54.8789 57.8986 55.2284 57.388 55.668 56.9611L58.9093 53.6764L52.3805 47.1533L7.88312 91.6121C7.45475 92.041 6.94593 92.3812 6.38579 92.6134C5.82564 92.8456 5.22517 92.965 4.61875 92.965C4.01232 92.965 3.41185 92.8456 2.8517 92.6134C2.29156 92.3812 1.78274 92.041 1.35437 91.6121C-0.451456 89.8079 -0.451456 86.847 1.35437 85.0428ZM83.3111 79.1211C85.7671 79.1211 88.1226 80.0959 89.8593 81.8311C91.596 83.5663 92.5717 85.9198 92.5717 88.3737V93H46.2685V88.3737C46.2685 85.9198 47.2442 83.5663 48.9809 81.8311C50.7176 80.0959 53.0731 79.1211 55.5291 79.1211H83.3111Z" fill="white"/>
</svg>
