<svg width="127" height="127" viewBox="0 0 127 127" fill="none" xmlns="http://www.w3.org/2000/svg">
<g clip-path="url(#clip0_647_26)">
<path d="M35.9656 53.1294L32.5233 63.3058H23.7397L38.4741 23.7397H48.6346L63.3057 63.3058H54.071L50.6288 53.1294H35.9656ZM48.8958 47.3053L43.5227 31.3048H43.1349L37.7619 47.3053H48.8958Z" fill="#676767"/>
<path d="M0 15.8264C0 11.629 1.66742 7.60349 4.63545 4.63545C7.60349 1.66742 11.629 0 15.8264 0L71.2189 0C75.4164 0 79.4419 1.66742 82.4099 4.63545C85.3779 7.60349 87.0454 11.629 87.0454 15.8264V39.5661H110.785C114.982 39.5661 119.008 41.2335 121.976 44.2015C124.944 47.1696 126.611 51.1951 126.611 55.3925V110.785C126.611 114.982 124.944 119.008 121.976 121.976C119.008 124.944 114.982 126.611 110.785 126.611H55.3925C51.1951 126.611 47.1696 124.944 44.2015 121.976C41.2335 119.008 39.5661 114.982 39.5661 110.785V87.0454H15.8264C11.629 87.0454 7.60349 85.3779 4.63545 82.4099C1.66742 79.4419 0 75.4164 0 71.2189V15.8264ZM15.8264 7.91322C13.7277 7.91322 11.715 8.74693 10.2309 10.2309C8.74693 11.715 7.91322 13.7277 7.91322 15.8264V71.2189C7.91322 73.3177 8.74693 75.3304 10.2309 76.8144C11.715 78.2984 13.7277 79.1322 15.8264 79.1322H71.2189C73.3177 79.1322 75.3304 78.2984 76.8144 76.8144C78.2984 75.3304 79.1322 73.3177 79.1322 71.2189V15.8264C79.1322 13.7277 78.2984 11.715 76.8144 10.2309C75.3304 8.74693 73.3177 7.91322 71.2189 7.91322H15.8264ZM72.311 87.0058C73.8356 89.385 75.4974 91.6166 77.2963 93.7004C71.3772 98.2505 64.0575 101.622 55.3925 103.924C56.8011 105.641 58.9614 108.949 59.7843 110.785C68.6867 107.944 76.2438 104.106 82.6219 98.9627C88.7705 104.225 96.383 108.182 105.808 110.611C106.86 108.601 109.084 105.285 110.785 103.568C101.883 101.566 94.5075 98.0764 88.4697 93.4076C93.8587 87.4964 98.1397 80.3429 101.297 71.5909H110.785V63.3057H87.0454V71.5909H93.099C90.5826 78.2696 87.2432 83.8247 83.0334 88.446C81.8698 87.2079 80.7736 85.9083 79.7494 84.5527C77.5146 85.9807 74.9568 86.8243 72.311 87.0058Z" fill="#676767"/>
</g>
<defs>
<clipPath id="clip0_647_26">
<rect width="126.611" height="126.611" fill="white"/>
</clipPath>
</defs>
</svg>
