<svg width="113" height="118" viewBox="0 0 113 118" fill="none" xmlns="http://www.w3.org/2000/svg">
<path d="M37.4485 0C32.4825 0 27.7199 1.7686 24.2084 4.91673C20.697 8.06486 18.7242 12.3346 18.7242 16.7868V36.9393C21.6195 35.4406 24.7899 34.4173 28.0863 33.9177V16.7868C28.0863 14.5607 29.0727 12.4258 30.8284 10.8518C32.5842 9.27769 34.9655 8.39338 37.4485 8.39338H65.5348V29.3768C65.5348 32.7159 67.0143 35.9183 69.6479 38.2794C72.2816 40.6405 75.8535 41.9669 79.578 41.9669H102.983V100.721C102.983 102.947 101.997 105.082 100.241 106.656C98.4854 108.23 96.1041 109.114 93.6211 109.114H74.8969C74.8969 112.169 73.9888 115.04 72.3879 117.507H93.6211C98.5871 117.507 103.35 115.739 106.861 112.591C110.373 109.443 112.345 105.173 112.345 100.721V37.0484C112.342 33.7104 110.86 30.5102 108.226 28.1514L80.9448 3.6847C78.3122 1.326 74.7429 0.000712442 71.021 0H37.4485ZM101.045 33.5735H79.578C78.3365 33.5735 77.1458 33.1314 76.268 32.3444C75.3901 31.5573 74.8969 30.4899 74.8969 29.3768V10.1308L101.045 33.5735ZM14.0432 58.7537V67.1471H9.36211C6.87913 67.1471 4.49784 68.0314 2.7421 69.6054C0.986362 71.1795 0 73.3144 0 75.5405V109.114C0 111.34 0.986362 113.475 2.7421 115.049C4.49784 116.623 6.87913 117.507 9.36211 117.507H56.1727C58.6557 117.507 61.037 116.623 62.7927 115.049C64.5484 113.475 65.5348 111.34 65.5348 109.114V75.5405C65.5348 73.3144 64.5484 71.1795 62.7927 69.6054C61.037 68.0314 58.6557 67.1471 56.1727 67.1471H51.4916V58.7537C51.4916 54.3016 49.5189 50.0318 46.0074 46.8837C42.496 43.7355 37.7334 41.9669 32.7674 41.9669C27.8014 41.9669 23.0388 43.7355 19.5274 46.8837C16.0159 50.0318 14.0432 54.3016 14.0432 58.7537ZM23.4053 67.1471V58.7537C23.4053 56.5276 24.3916 54.3927 26.1474 52.8187C27.9031 51.2446 30.2844 50.3603 32.7674 50.3603C35.2504 50.3603 37.6317 51.2446 39.3874 52.8187C41.1432 54.3927 42.1295 56.5276 42.1295 58.7537V67.1471H23.4053ZM32.7674 86.0322C34.6296 86.0322 36.4156 86.6954 37.7324 87.876C39.0492 89.0565 39.789 90.6577 39.789 92.3272C39.789 93.9968 39.0492 95.5979 37.7324 96.7785C36.4156 97.959 34.6296 98.6223 32.7674 98.6223C30.9052 98.6223 29.1192 97.959 27.8024 96.7785C26.4856 95.5979 25.7458 93.9968 25.7458 92.3272C25.7458 90.6577 26.4856 89.0565 27.8024 87.876C29.1192 86.6954 30.9052 86.0322 32.7674 86.0322Z" fill="#676767"/>
</svg>
