<svg width="82" height="85" viewBox="0 0 82 85" fill="none" xmlns="http://www.w3.org/2000/svg">
<path d="M27.3333 0C23.7087 0 20.2325 1.27933 17.6695 3.55656C15.1065 5.83379 13.6667 8.92237 13.6667 12.1429V26.7204C15.7799 25.6362 18.094 24.8961 20.5 24.5346V12.1429C20.5 10.5326 21.2199 8.98832 22.5014 7.84971C23.7829 6.7111 25.521 6.07143 27.3333 6.07143H47.8333V21.25C47.8333 23.6654 48.9132 25.9818 50.8355 27.6897C52.7577 29.3976 55.3649 30.3571 58.0833 30.3571H75.1667V72.8571C75.1667 74.4674 74.4467 76.0117 73.1652 77.1503C71.8837 78.2889 70.1456 78.9286 68.3333 78.9286H54.6667C54.6667 81.1386 54.0038 83.215 52.8353 85H68.3333C71.958 85 75.4341 83.7207 77.9971 81.4434C80.5601 79.1662 82 76.0776 82 72.8571V26.7993C81.9976 24.3847 80.9161 22.0699 78.9933 20.3636L59.081 2.66536C57.1595 0.959175 54.5542 0.000515351 51.8377 0H27.3333ZM73.7522 24.2857H58.0833C57.1772 24.2857 56.3081 23.9659 55.6674 23.3966C55.0266 22.8273 54.6667 22.0551 54.6667 21.25V7.32821L73.7522 24.2857ZM10.25 42.5V48.5714H6.83333C5.02102 48.5714 3.28293 49.2111 2.00144 50.3497C0.719938 51.4883 0 53.0326 0 54.6429V78.9286C0 80.5388 0.719938 82.0831 2.00144 83.2217C3.28293 84.3603 5.02102 85 6.83333 85H41C42.8123 85 44.5504 84.3603 45.8319 83.2217C47.1134 82.0831 47.8333 80.5388 47.8333 78.9286V54.6429C47.8333 53.0326 47.1134 51.4883 45.8319 50.3497C44.5504 49.2111 42.8123 48.5714 41 48.5714H37.5833V42.5C37.5833 39.2795 36.1435 36.1909 33.5805 33.9137C31.0175 31.6365 27.5413 30.3571 23.9167 30.3571C20.292 30.3571 16.8159 31.6365 14.2529 33.9137C11.6899 36.1909 10.25 39.2795 10.25 42.5ZM17.0833 48.5714V42.5C17.0833 40.8898 17.8033 39.3455 19.0848 38.2069C20.3663 37.0682 22.1044 36.4286 23.9167 36.4286C25.729 36.4286 27.4671 37.0682 28.7486 38.2069C30.0301 39.3455 30.75 40.8898 30.75 42.5V48.5714H17.0833ZM23.9167 62.2321C25.2759 62.2321 26.5795 62.7119 27.5406 63.5659C28.5017 64.4198 29.0417 65.578 29.0417 66.7857C29.0417 67.9934 28.5017 69.1516 27.5406 70.0056C26.5795 70.8595 25.2759 71.3393 23.9167 71.3393C22.5574 71.3393 21.2539 70.8595 20.2927 70.0056C19.3316 69.1516 18.7917 67.9934 18.7917 66.7857C18.7917 65.578 19.3316 64.4198 20.2927 63.5659C21.2539 62.7119 22.5574 62.2321 23.9167 62.2321Z" fill="white"/>
</svg>
