<svg width="127" height="127" viewBox="0 0 127 127" fill="none" xmlns="http://www.w3.org/2000/svg">
<path d="M122.135 43.3707C129.708 35.7978 126.255 26.9527 122.135 22.6513L103.959 4.47649C96.3251 -3.09637 87.5401 0.356855 83.2385 4.47649L72.9389 14.8361H57.2471C45.7358 14.8361 39.0713 20.8944 35.6785 27.8615L8.77833 54.7602V78.9934L4.47672 83.2341C-3.09653 90.8676 0.356874 99.6521 4.47672 103.953L22.6525 122.128C25.9242 125.4 29.4382 126.611 32.7704 126.611C37.072 126.611 41.0101 124.491 43.3729 122.128L59.7312 105.71H81.4815C91.7812 105.71 96.9915 99.2886 98.8697 92.988C105.716 91.1705 109.472 85.9604 110.987 80.8714C120.378 78.4481 123.892 69.5424 123.892 63.3024V45.1276H120.317L122.135 43.3707ZM111.775 63.3024C111.775 66.0286 110.623 69.3607 105.716 69.3607H99.6573V75.419C99.6573 78.1452 98.5062 81.4772 93.5987 81.4772H87.5401V87.5355C87.5401 90.2618 86.389 93.5938 81.4815 93.5938H54.7631L34.8909 113.465C33.0127 115.222 31.9222 114.192 31.2557 113.526L13.1405 95.4719C11.3835 93.5938 12.4135 92.5033 13.0799 91.8369L20.8955 83.9611V59.728L33.0127 47.6115V57.2441C33.0127 64.5746 37.8596 75.419 51.1885 75.419C64.5174 75.419 69.3643 64.5746 69.3643 57.2441H111.775V63.3024ZM113.532 34.7679L103.232 45.1276H57.2471V57.2441C57.2471 59.9703 56.096 63.3024 51.1885 63.3024C46.2811 63.3024 45.1299 59.9703 45.1299 57.2441V39.0693C45.1299 36.2825 46.1599 26.9527 57.2471 26.9527H77.907L91.7206 13.1398C93.5987 11.3829 94.6893 12.4128 95.3557 13.0792L113.471 31.1329C115.228 33.011 114.198 34.1015 113.532 34.7679Z" fill="#676767"/>
</svg>
