<svg width="92" height="92" viewBox="0 0 92 92" fill="none" xmlns="http://www.w3.org/2000/svg">
<path d="M26.1338 38.6055L23.6325 46H17.25L27.9565 17.25H35.3395L46 46H39.2898L36.7885 38.6055H26.1338ZM35.5292 34.3735L31.625 22.747H31.3433L27.439 34.3735H35.5292Z" fill="white"/>
<path d="M0 11.5C0 8.45001 1.2116 5.52494 3.36827 3.36827C5.52494 1.2116 8.45001 0 11.5 0L51.75 0C54.8 0 57.7251 1.2116 59.8817 3.36827C62.0384 5.52494 63.25 8.45001 63.25 11.5V28.75H80.5C83.55 28.75 86.4751 29.9616 88.6317 32.1183C90.7884 34.2749 92 37.2 92 40.25V80.5C92 83.55 90.7884 86.4751 88.6317 88.6317C86.4751 90.7884 83.55 92 80.5 92H40.25C37.2 92 34.2749 90.7884 32.1183 88.6317C29.9616 86.4751 28.75 83.55 28.75 80.5V63.25H11.5C8.45001 63.25 5.52494 62.0384 3.36827 59.8817C1.2116 57.7251 0 54.8 0 51.75V11.5ZM11.5 5.75C9.97501 5.75 8.51247 6.3558 7.43414 7.43414C6.3558 8.51247 5.75 9.97501 5.75 11.5V51.75C5.75 53.275 6.3558 54.7375 7.43414 55.8159C8.51247 56.8942 9.97501 57.5 11.5 57.5H51.75C53.275 57.5 54.7375 56.8942 55.8159 55.8159C56.8942 54.7375 57.5 53.275 57.5 51.75V11.5C57.5 9.97501 56.8942 8.51247 55.8159 7.43414C54.7375 6.3558 53.275 5.75 51.75 5.75H11.5ZM52.5435 63.2212C53.6513 64.9501 54.8588 66.5716 56.166 68.0857C51.865 71.392 46.5462 73.8415 40.25 75.5148C41.2735 76.7625 42.8433 79.166 43.4412 80.5C49.91 78.4358 55.4012 75.647 60.0358 71.9095C64.5035 75.7332 70.035 78.6082 76.8833 80.3735C77.648 78.913 79.2637 76.5038 80.5 75.256C74.0312 73.8013 68.6722 71.2655 64.285 67.873C68.2008 63.5778 71.3115 58.3797 73.6058 52.0202H80.5V46H63.25V52.0202H67.6488C65.8203 56.8732 63.3937 60.9098 60.3348 64.2678C59.4893 63.3681 58.6927 62.4238 57.9485 61.4388C56.3246 62.4764 54.4661 63.0893 52.5435 63.2212Z" fill="white"/>
</svg>
